Coordinates
version=1
nRows=6
nColumns=38
inDegrees=yes

Units are S.I. units (second, meters, Newtons, ...)
Angles are in degrees.

endheader
time	pelvis_tilt	pelvis_list	pelvis_rotation	pelvis_tx	pelvis_ty	pelvis_tz	hip_flexion_r	hip_adduction_r	hip_rotation_r	knee_angle_r	ankle_angle_r	subtalar_angle_r	mtp_angle_r	hip_flexion_l	hip_adduction_l	hip_rotation_l	knee_angle_l	ankle_angle_l	subtalar_angle_l	mtp_angle_l	lumbar_extension	lumbar_bending	lumbar_rotation	arm_flex_r	arm_add_r	arm_rot_r	elbow_flex_r	pro_sup_r	wrist_flex_r	wrist_dev_r	arm_flex_l	arm_add_l	arm_rot_l	elbow_flex_l	pro_sup_l	wrist_flex_l	wrist_dev_l
      0.20800000	     -3.32432921	      5.31995638	      3.92533346	     -0.35457036	      0.99340781	      0.30877664	    -16.25157219	     -4.40518973	     -9.82646269	    -65.16498455	    -38.57665345	    -22.10736732	     -5.79367498	     62.96656453	      9.26399868	      7.01176912	    -37.89013521	     -7.69415760	     -5.08044077	      6.14218993	     -6.28434095	    -15.36679399	     -0.93428223	     32.56259327	    -18.09184515	     30.32978715	    150.00035077	     56.87306876	    -19.18388681	     14.80811416	    -69.23059297	     -1.26933998	    -52.49386367	     71.71824767	     60.44195259	      8.43338687	     23.83879859
      0.21200000	     -2.78299780	      4.59911321	      4.02184398	     -0.31610752	      0.99540280	      0.30979413	    -15.18370563	     -3.64311962	     -9.86907271	    -69.48245931	    -38.28611257	    -24.93664225	     -7.80010298	     60.32060703	      8.42937104	      7.86298464	    -34.14509242	     -8.32203002	     -5.05803228	      6.27874093	     -7.53770920	    -15.03628855	     -0.15986221	     28.53356628	    -19.31990430	     28.18390995	    150.00035077	     57.31547130	    -19.51691082	     14.65925415	    -67.13566199	     -2.05813979	    -51.85052756	     73.55479527	     60.60825347	      8.63529257	     24.01255021
      0.21600000	     -2.29790517	      3.85237961	      4.15191904	     -0.27776650	      0.99727505	      0.31057795	    -13.91486752	     -2.69834238	     -9.62644837	    -73.79895265	    -37.61385659	    -26.35625641	     -8.98210523	     57.86300556	      7.48166293	      8.11465757	    -30.82498904	     -9.19285340	     -5.03705037	      6.66060457	     -8.80641268	    -14.60784335	      0.93211583	     23.85589689	    -20.49239841	     24.86539403	    150.00035077	     57.60362265	    -19.90731936	     14.58073771	    -64.79139269	     -3.25125980	    -50.88242030	     75.47045681	     60.54385378	      8.85492684	     24.23303676
      0.22000000	     -2.34197531	      3.08222597	      4.76089563	     -0.23855725	      0.99864660	      0.31072097	    -12.14553963	     -1.63915685	     -9.82549513	    -77.88875682	    -37.01952598	    -26.78077351	     -9.23691947	     55.99755096	      6.81399870	      8.05278573	    -27.94945364	     -9.95326070	     -4.78572703	      6.78756769	     -9.49346966	    -14.09757329	      1.86396980	     18.24721852	    -21.14277787	     20.47474498	    150.00035077	     57.86018798	    -20.31748478	     14.62463190	    -62.31930951	     -4.77689171	    -49.37457611	     77.22036427	     60.67908857	      9.06754919	     24.49697911
      0.22400000	     -1.98240853	      2.51485278	      5.16415941	     -0.20065051	      1.00013312	      0.31125513	    -10.53159323	     -0.77188686	     -9.86316916	    -82.14737861	    -36.10721077	    -26.58272473	     -9.09449150	     53.90111805	      6.01772175	      7.16152636	    -25.54681837	    -10.65973187	     -4.23266783	      6.42475697	    -10.84416543	    -13.71738124	      2.89682743	     12.93727290	    -21.37543341	     15.61907834	    150.00035077	     57.57107625	    -20.75167909	     14.83182872	    -59.58964711	     -6.28078589	    -47.43505707	     79.21424337	     61.04044759	      9.27336554	     24.79855873
      0.22800000	     -1.39740556	      2.14769954	      5.98794091	     -0.16306626	      1.00153035	      0.31122877	     -9.12406093	     -0.12801054	    -10.52019688	    -86.25427869	    -35.36356756	    -25.98852881	     -8.39801393	     51.68417932	      5.71803179	      6.19226504	    -23.62680538	    -11.52867093	     -4.11731881	      6.13424657	    -12.58645280	    -13.34835671	      3.60041959	      7.67021489	    -21.30248681	     10.58669523	    150.00035077	     57.03559265	    -21.20401496	     15.20031004	    -56.73528033	     -8.05669092	    -44.35913423	     81.46699172	     61.87587459	      9.45325480	     25.12060150
